<svg xmlns="http://www.w3.org/2000/svg" xmlns:xlink="http://www.w3.org/1999/xlink" version="1.1" width="242.9300079345703" height="43.099998474121094"><defs/><g transform="translate(-124.72795104980469,24.270000457763672)"><rect fill="rgb(255,255,255)" stroke="none" x="0" y="0" width="242.9300079345703" height="43.099998474121094" fill-opacity="0" transform="translate(124.72795104980469,-24.270000457763672)"/><g transform="translate(122.20795440673828,21.5) rotate(0,0,0) translate(-122.20795440673828,-21.5) matrix(1,0,0,1,122.20795440673828,21.5)"><path fill="rgb(0,0,0)" fill-opacity="1" d="M21.48-18.46L21.48-18.46Q21.48-16.30 20.71-15.08Q19.94-13.85 18.46-12.80L18.46-12.80Q18.07-12.56 17.40-12.22Q16.73-11.88 15.91-11.60Q15.10-11.31 14.18-11.12Q13.27-10.92 12.50-10.92L12.50-10.92Q10.34-10.92 9.24-11.38Q8.14-11.84 8.14-12.46L8.14-12.46Q8.14-13.13 8.52-13.56Q8.90-14.00 9.19-14.04L9.19-14.04L9.72-13.66Q9.96-13.42 10.39-13.16Q10.82-12.89 11.78-12.89L11.78-12.89Q12.70-12.89 13.99-13.20Q15.29-13.52 16.46-14.16Q17.64-14.81 18.48-15.77Q19.32-16.73 19.32-17.98L19.32-17.98Q19.32-19.08 17.66-20.02Q16.01-20.96 12.46-21.29L12.46-21.29Q10.63-21.44 8.86-21.75Q7.08-22.06 5.66-22.61Q4.25-23.16 3.38-24.00Q2.52-24.84 2.52-26.09L2.52-26.09Q2.52-27.29 3.19-28.40Q3.86-29.50 4.85-30.44Q5.83-31.37 6.89-32.09Q7.94-32.81 8.66-33.29L8.66-33.29Q9.24-33.63 10.27-34.18Q11.30-34.73 12.48-35.24Q13.66-35.74 14.83-36.10Q16.01-36.46 16.82-36.46L16.82-36.46Q17.78-36.46 18.12-35.93Q18.46-35.40 18.46-34.44L18.46-34.44Q18.46-33.63 18.26-32.72Q18.07-31.80 17.83-30.94Q17.59-30.08 17.38-29.43Q17.16-28.78 17.06-28.59L17.06-28.59Q16.87-28.16 16.63-28.01Q16.39-27.87 16.30-27.87L16.30-27.87Q16.10-27.87 16.10-28.11L16.10-28.11Q16.10-28.25 16.18-28.66Q16.25-29.07 16.37-29.64Q16.49-30.22 16.56-30.89Q16.63-31.56 16.63-32.24L16.63-32.24Q16.63-33.29 16.54-33.77Q16.44-34.25 15.77-34.25L15.77-34.25Q15.10-34.25 13.94-33.89Q12.79-33.53 11.59-33.00L11.59-33.00Q10.30-32.43 9.07-31.52Q7.85-30.60 6.89-29.64Q5.93-28.68 5.33-27.80Q4.73-26.91 4.73-26.38L4.73-26.38Q4.73-25.80 5.52-25.30Q6.31-24.80 7.54-24.41Q8.76-24.03 10.25-23.74Q11.74-23.45 13.18-23.31L13.18-23.31Q14.38-23.16 15.82-22.92Q17.26-22.68 18.50-22.16Q19.75-21.63 20.62-20.74Q21.48-19.85 21.48-18.46ZM46.92-21.48L46.92-21.48Q46.92-20.62 46.13-19.35Q45.34-18.08 43.99-16.88Q42.65-15.68 40.87-14.84Q39.10-14.00 37.18-14.00L37.18-14.00Q36.31-14.00 35.35-14.28Q34.39-14.57 33.48-15.12Q32.57-15.68 31.85-16.47Q31.13-17.26 30.79-18.27L30.79-18.27Q30.50-17.98 30.10-17.31Q29.69-16.64 29.21-15.94Q28.73-15.24 28.15-14.74Q27.58-14.24 26.95-14.24L26.95-14.24Q26.33-14.24 25.92-14.88Q25.51-15.53 25.27-16.32Q25.03-17.12 24.94-17.84Q24.84-18.56 24.84-18.65L24.84-18.65Q24.84-19.23 25.18-20.84Q25.51-22.44 26.18-24.17Q26.86-25.90 27.89-27.24Q28.92-28.59 30.31-28.59L30.31-28.59Q30.84-28.59 31.01-28.13Q31.18-27.68 31.18-27.24L31.18-27.24L31.18-25.80Q31.42-25.61 31.68-25.54Q31.94-25.47 32.16-25.35Q32.38-25.23 32.50-24.99Q32.62-24.75 32.62-24.22L32.62-24.22Q32.62-23.88 32.57-23.62Q32.52-23.36 32.52-23.12L32.52-23.12Q32.52-21.87 32.71-20.67Q32.90-19.47 33.48-18.53Q34.06-17.60 35.06-17.00Q36.07-16.40 37.75-16.40L37.75-16.40Q39.86-16.40 41.33-17.28Q42.79-18.17 43.78-19.25Q44.76-20.33 45.34-21.22Q45.91-22.11 46.30-22.11L46.30-22.11Q46.92-22.11 46.92-21.48ZM30.07-23.60L30.07-23.60Q30.07-23.79 29.98-23.96Q29.88-24.12 29.88-24.27L29.88-24.27Q29.88-24.46 29.98-24.60Q30.07-24.75 30.07-24.99L30.07-24.99Q30.07-25.13 29.98-25.20Q29.88-25.28 29.88-25.37L29.88-25.37Q29.45-25.28 28.99-24.56Q28.54-23.84 28.13-22.88Q27.72-21.92 27.48-20.93Q27.24-19.95 27.24-19.32L27.24-19.32Q27.24-18.99 27.43-18.22Q27.62-17.45 27.86-17.21L27.86-17.21Q28.68-18.89 29.38-20.48Q30.07-22.06 30.07-23.60ZM61.08-19.23L61.08-19.23Q61.08-18.99 60.86-18.77Q60.65-18.56 60.60-18.32L60.60-18.32Q60.60-17.79 60.82-17.31Q61.03-16.83 61.03-16.16L61.03-16.16Q61.03-15.53 60.65-15.53L60.65-15.53Q60.17-15.53 59.95-15.41Q59.74-15.29 59.21-15.20L59.21-15.20Q58.92-15.20 58.58-15.72L58.58-15.72Q58.39-15.96 58.25-16.30L58.25-16.30Q58.25-16.35 57.98-16.11Q57.72-15.87 57.12-15.56Q56.52-15.24 55.49-14.98Q54.46-14.72 52.87-14.72L52.87-14.72Q51.53-14.72 50.52-15.32Q49.51-15.92 48.86-16.88Q48.22-17.84 47.90-19.06Q47.59-20.28 47.59-21.53L47.59-21.53Q47.59-22.68 47.86-23.72Q48.12-24.75 48.60-25.54Q49.08-26.33 49.80-26.81Q50.52-27.29 51.48-27.29L51.48-27.29Q52.39-27.29 53.30-26.72Q54.22-26.14 54.94-25.47Q55.66-24.80 56.11-24.24Q56.57-23.69 56.57-23.69L56.57-23.69Q55.90-27.44 55.37-30.46L55.37-30.46Q55.13-31.76 54.91-33.03Q54.70-34.30 54.50-35.31Q54.31-36.32 54.19-37.01Q54.07-37.71 54.07-37.85L54.07-37.85Q54.02-38.14 53.98-38.88Q53.93-39.63 53.88-40.44Q53.83-41.26 53.78-41.93Q53.74-42.60 53.69-42.80L53.69-42.80Q53.54-43.28 53.33-44.00Q53.11-44.72 53.11-44.81L53.11-44.81Q53.11-45.05 53.35-45.41Q53.59-45.77 53.98-45.77L53.98-45.77Q54.26-45.77 54.50-45.72Q54.74-45.68 54.94-45.44Q55.13-45.20 55.30-44.69Q55.46-44.19 55.61-43.28L55.61-43.28Q55.66-42.80 55.90-41.45Q56.14-40.11 56.38-38.52Q56.62-36.94 56.86-35.50Q57.10-34.06 57.19-33.39L57.19-33.39Q57.43-31.56 57.84-29.43Q58.25-27.29 58.68-25.32Q59.11-23.36 59.54-21.84Q59.98-20.33 60.31-19.80L60.31-19.80Q60.41-19.61 60.70-19.54Q60.98-19.47 61.08-19.23ZM57.53-18.27L57.53-18.27Q57.48-18.41 56.93-19.49Q56.38-20.57 55.54-21.84Q54.70-23.12 53.66-24.12Q52.63-25.13 51.67-25.13L51.67-25.13Q50.86-25.13 50.35-23.88Q49.85-22.64 49.85-21.00L49.85-21.00Q49.85-19.18 50.93-18.08Q52.01-16.97 53.35-16.97L53.35-16.97Q54.50-16.97 55.75-17.36Q57.00-17.74 57.53-18.27ZM67.61-33.58L67.61-33.58Q67.61-33.48 67.27-33.20Q66.94-32.91 66.48-32.60Q66.02-32.28 65.54-32.04Q65.06-31.80 64.78-31.80L64.78-31.80Q64.58-31.80 64.27-31.83Q63.96-31.85 63.65-32.00Q63.34-32.14 63.10-32.40Q62.86-32.67 62.86-33.10L62.86-33.10Q62.86-33.77 63.34-34.37Q63.82-34.97 64.58-34.97L64.58-34.97Q64.73-34.97 65.23-34.85Q65.74-34.73 66.26-34.54Q66.79-34.35 67.20-34.11Q67.61-33.87 67.61-33.58ZM69.19-15.63L69.19-15.63Q69.19-15.29 68.69-15.05Q68.18-14.81 67.94-14.81L67.94-14.81Q67.46-14.81 67.08-15.44Q66.70-16.06 66.41-16.88Q66.12-17.69 65.93-18.44Q65.74-19.18 65.64-19.47L65.64-19.47Q65.50-19.95 65.26-20.62Q65.02-21.29 64.80-21.92Q64.58-22.54 64.44-23.02Q64.30-23.50 64.30-23.55L64.30-23.55Q64.30-24.22 64.56-24.80Q64.82-25.37 65.21-25.37L65.21-25.37Q65.64-25.37 66.12-24.70Q66.60-24.03 67.06-23.00Q67.51-21.96 67.90-20.74Q68.28-19.52 68.57-18.44Q68.86-17.36 69.02-16.56Q69.19-15.77 69.19-15.63ZM86.04-20.24L86.04-20.24Q86.04-19.76 85.90-19.25Q85.75-18.75 85.61-18.41L85.61-18.41Q85.51-18.27 84.72-17.43Q83.93-16.59 82.75-15.68Q81.58-14.76 80.11-14.02Q78.65-13.28 77.30-13.28L77.30-13.28Q76.49-13.28 75.65-13.56Q74.81-13.85 74.09-14.50Q73.37-15.15 72.91-16.11Q72.46-17.07 72.46-18.46L72.46-18.46Q72.46-20.76 73.22-22.64Q73.99-24.51 74.76-25.61L74.76-25.61Q75.10-26.14 75.65-26.69Q76.20-27.24 76.73-27.70Q77.26-28.16 77.71-28.44Q78.17-28.73 78.36-28.73L78.36-28.73Q78.79-28.73 79.15-28.49Q79.51-28.25 79.51-28.01L79.51-28.01Q79.51-27.63 79.30-27.36Q79.08-27.10 78.70-26.79Q78.31-26.48 77.78-25.97Q77.26-25.47 76.68-24.65L76.68-24.65Q75.53-23.07 74.98-21.41Q74.42-19.76 74.42-18.51L74.42-18.51Q74.42-17.26 75.36-16.52Q76.30-15.77 77.30-15.77L77.30-15.77Q79.13-15.77 80.54-16.59Q81.96-17.40 82.97-18.41Q83.98-19.42 84.60-20.24Q85.22-21.05 85.51-21.05L85.51-21.05Q86.04-21.05 86.04-20.24ZM106.92-16.64L106.92-16.64Q106.92-16.25 106.82-16.08Q106.73-15.92 106.34-15.82L106.34-15.82Q105.91-15.68 105.26-15.51Q104.62-15.34 103.85-15.17Q103.08-15.00 102.29-14.88Q101.50-14.76 100.82-14.76L100.82-14.76Q100.01-14.76 99.02-14.86Q98.04-14.96 97.13-15.17Q96.22-15.39 95.47-15.65Q94.73-15.92 94.39-16.30L94.39-16.30Q94.63-15.29 94.82-14.28Q95.02-13.28 95.11-12.27L95.11-12.27Q95.11-12.03 94.99-11.86Q94.87-11.69 94.34-11.69L94.34-11.69Q94.10-11.69 93.89-11.81Q93.67-11.93 93.53-12.32L93.53-12.32Q93.10-13.28 92.81-14.12Q92.52-14.96 92.30-15.82Q92.09-16.68 91.85-17.64Q91.61-18.60 91.27-19.76L91.27-19.76Q90.74-21.63 90.17-23.76Q89.59-25.90 89.11-27.84Q88.63-29.79 88.34-31.30Q88.06-32.81 88.06-33.44L88.06-33.44Q88.06-33.72 88.08-34.20Q88.10-34.68 88.22-35.14Q88.34-35.60 88.56-35.91Q88.78-36.22 89.16-36.22L89.16-36.22Q89.40-36.22 89.66-35.48Q89.93-34.73 90.14-33.84Q90.36-32.96 90.53-32.16Q90.70-31.37 90.70-31.32L90.70-31.32Q90.89-30.27 91.15-29.00Q91.42-27.72 91.70-26.43Q91.99-25.13 92.33-23.96Q92.66-22.78 93.05-21.96L93.05-21.96Q93.10-22.44 93.38-23.36Q93.67-24.27 94.15-25.32Q94.63-26.38 95.23-27.51Q95.83-28.64 96.48-29.55Q97.13-30.46 97.78-31.04Q98.42-31.61 99.00-31.61L99.00-31.61Q99.91-31.61 100.27-31.37Q100.63-31.13 100.63-30.80L100.63-30.80Q100.63-30.51 99.82-29.67Q99.00-28.83 97.99-27.46Q96.98-26.09 96.17-24.24Q95.35-22.40 95.35-20.14L95.35-20.14Q95.35-19.32 95.81-18.72Q96.26-18.12 97.01-17.74Q97.75-17.36 98.69-17.14Q99.62-16.92 100.54-16.92L100.54-16.92Q101.35-16.92 102.31-16.97Q103.27-17.02 104.11-17.09Q104.95-17.16 105.55-17.21Q106.15-17.26 106.30-17.26L106.30-17.26Q106.54-17.26 106.73-17.12Q106.92-16.97 106.92-16.64ZM142.15-27.58L142.15-27.58Q142.15-26.91 141.84-26.62Q141.53-26.33 141.14-26.33L141.14-26.33Q140.71-26.33 140.30-26.48Q139.90-26.62 139.27-26.86L139.27-26.86L138.55-27.15Q138.46-26.91 138.43-26.55Q138.41-26.19 138.41-25.95L138.41-25.95Q138.41-24.27 138.55-22.30Q138.70-20.33 138.89-18.36Q139.08-16.40 139.34-14.52Q139.61-12.65 139.80-11.14Q139.99-9.63 140.14-8.60Q140.28-7.56 140.28-7.28L140.28-7.28L140.28-6.08Q140.28-5.55 140.16-5.12Q140.04-4.68 139.66-4.68L139.66-4.68Q138.94-4.68 138.43-5.86Q137.93-7.04 137.62-8.55Q137.30-10.06 137.16-11.48Q137.02-12.89 137.02-13.37L137.02-13.37Q137.02-13.71 136.90-15.00Q136.78-16.30 136.63-17.91Q136.49-19.52 136.37-21.17Q136.25-22.83 136.25-23.98L136.25-23.98Q136.25-24.46 136.22-25.06Q136.20-25.66 136.20-26.19L136.20-26.19L136.20-27.68Q136.20-28.44 135.12-29.26Q134.04-30.08 132.50-31.06Q130.97-32.04 129.34-33.32Q127.70-34.59 126.65-36.36L126.65-36.36Q126.50-36.41 126.50-36.80L126.50-36.80Q126.50-37.47 126.79-38.00Q127.08-38.52 127.56-38.52L127.56-38.52Q127.70-38.52 127.99-38.16Q128.28-37.80 128.71-37.28Q129.14-36.75 129.72-36.10Q130.30-35.45 131.02-34.88L131.02-34.88Q131.50-34.44 132.36-33.80Q133.22-33.15 134.06-32.52Q134.90-31.90 135.53-31.44Q136.15-30.99 136.20-30.99L136.20-30.99Q136.39-30.99 136.44-31.37Q136.49-31.76 136.49-31.85L136.49-31.85L136.73-34.73Q136.97-37.18 137.33-39.17Q137.69-41.16 137.69-42.65L137.69-42.65Q137.69-42.80 137.59-43.23Q137.50-43.66 137.50-43.80L137.50-43.80Q137.50-44.09 137.69-44.26Q137.88-44.43 138.12-44.52L138.12-44.52Q138.41-44.67 138.79-44.72L138.79-44.72Q139.46-44.72 139.75-44.21Q140.04-43.71 140.04-43.28L140.04-43.28Q140.04-41.55 139.82-39.92Q139.61-38.28 139.34-36.65Q139.08-35.02 138.86-33.32Q138.65-31.61 138.65-29.74L138.65-29.74Q138.65-29.45 138.98-29.14Q139.32-28.83 139.82-28.56Q140.33-28.30 140.95-28.04Q141.58-27.77 142.15-27.58ZM166.73-21.48L166.73-21.48Q166.73-20.62 165.94-19.35Q165.14-18.08 163.80-16.88Q162.46-15.68 160.68-14.84Q158.90-14.00 156.98-14.00L156.98-14.00Q156.12-14.00 155.16-14.28Q154.20-14.57 153.29-15.12Q152.38-15.68 151.66-16.47Q150.94-17.26 150.60-18.27L150.60-18.27Q150.31-17.98 149.90-17.31Q149.50-16.64 149.02-15.94Q148.54-15.24 147.96-14.74Q147.38-14.24 146.76-14.24L146.76-14.24Q146.14-14.24 145.73-14.88Q145.32-15.53 145.08-16.32Q144.84-17.12 144.74-17.84Q144.65-18.56 144.65-18.65L144.65-18.65Q144.65-19.23 144.98-20.84Q145.32-22.44 145.99-24.17Q146.66-25.90 147.70-27.24Q148.73-28.59 150.12-28.59L150.12-28.59Q150.65-28.59 150.82-28.13Q150.98-27.68 150.98-27.24L150.98-27.24L150.98-25.80Q151.22-25.61 151.49-25.54Q151.75-25.47 151.97-25.35Q152.18-25.23 152.30-24.99Q152.42-24.75 152.42-24.22L152.42-24.22Q152.42-23.88 152.38-23.62Q152.33-23.36 152.33-23.12L152.33-23.12Q152.33-21.87 152.52-20.67Q152.71-19.47 153.29-18.53Q153.86-17.60 154.87-17.00Q155.88-16.40 157.56-16.40L157.56-16.40Q159.67-16.40 161.14-17.28Q162.60-18.17 163.58-19.25Q164.57-20.33 165.14-21.22Q165.72-22.11 166.10-22.11L166.10-22.11Q166.73-22.11 166.73-21.48ZM149.88-23.60L149.88-23.60Q149.88-23.79 149.78-23.96Q149.69-24.12 149.69-24.27L149.69-24.27Q149.69-24.46 149.78-24.60Q149.88-24.75 149.88-24.99L149.88-24.99Q149.88-25.13 149.78-25.20Q149.69-25.28 149.69-25.37L149.69-25.37Q149.26-25.28 148.80-24.56Q148.34-23.84 147.94-22.88Q147.53-21.92 147.29-20.93Q147.05-19.95 147.05-19.32L147.05-19.32Q147.05-18.99 147.24-18.22Q147.43-17.45 147.67-17.21L147.67-17.21Q148.49-18.89 149.18-20.48Q149.88-22.06 149.88-23.60ZM182.66-20.38L182.66-20.38Q182.90-20.14 182.90-20.09L182.90-20.09Q182.90-20.00 182.64-19.52Q182.38-19.04 181.94-18.51Q181.51-17.98 181.01-17.57Q180.50-17.16 180.02-17.16L180.02-17.16Q179.02-17.16 178.39-17.57Q177.77-17.98 177.36-18.60Q176.95-19.23 176.74-19.97Q176.52-20.72 176.38-21.39L176.38-21.39Q176.28-21.72 176.18-21.72L176.18-21.72Q176.04-21.72 175.61-20.69Q175.18-19.66 174.67-18.44Q174.17-17.21 173.71-16.18Q173.26-15.15 173.11-15.15L173.11-15.15Q172.25-15.15 171.65-15.89Q171.05-16.64 170.69-17.62Q170.33-18.60 170.14-19.64Q169.94-20.67 169.90-21.24L169.90-21.24Q169.75-22.54 169.27-25.56Q168.79-28.59 168.46-32.91L168.46-32.91Q168.36-33.82 168.24-34.56Q168.12-35.31 167.98-36.22Q167.83-37.13 167.74-38.28Q167.64-39.44 167.64-41.12L167.64-41.12Q167.64-41.21 167.69-41.74Q167.74-42.27 167.83-42.89Q167.93-43.52 168.14-44.00Q168.36-44.48 168.65-44.48L168.65-44.48Q168.98-44.48 169.27-44.07Q169.56-43.66 169.78-43.13Q169.99-42.60 170.09-42.12Q170.18-41.64 170.18-41.45L170.18-41.45Q170.18-40.73 170.09-40.11Q169.99-39.48 169.99-38.96L169.99-38.96Q169.99-38.24 170.11-37.13Q170.23-36.03 170.42-34.88Q170.62-33.72 170.76-32.64Q170.90-31.56 171.00-30.89L171.00-30.89Q171.00-30.84 171.10-30.22Q171.19-29.60 171.31-28.66Q171.43-27.72 171.55-26.64Q171.67-25.56 171.82-24.53Q171.96-23.50 172.08-22.71Q172.20-21.92 172.25-21.58L172.25-21.58Q172.25-21.44 172.32-21.17Q172.39-20.91 172.46-20.57Q172.54-20.24 172.63-19.95Q172.73-19.66 172.87-19.52L172.87-19.52Q173.16-20.09 173.62-21.29Q174.07-22.49 174.58-23.74Q175.08-24.99 175.54-25.92Q175.99-26.86 176.33-26.86L176.33-26.86Q176.71-26.86 176.95-26.72Q177.19-26.57 177.58-26.48L177.58-26.48Q178.06-26.28 178.06-25.97Q178.06-25.66 178.15-25.23L178.15-25.23Q178.25-24.65 178.46-23.72Q178.68-22.78 178.97-21.89Q179.26-21.00 179.64-20.38Q180.02-19.76 180.41-19.76L180.41-19.76Q180.60-19.76 180.94-20.26Q181.27-20.76 181.85-20.81L181.85-20.81Q181.94-20.81 182.18-20.69Q182.42-20.57 182.66-20.38ZM208.54-21.48L208.54-21.48Q208.54-20.62 207.74-19.35Q206.95-18.08 205.61-16.88Q204.26-15.68 202.49-14.84Q200.71-14.00 198.79-14.00L198.79-14.00Q197.93-14.00 196.97-14.28Q196.01-14.57 195.10-15.12Q194.18-15.68 193.46-16.47Q192.74-17.26 192.41-18.27L192.41-18.27Q192.12-17.98 191.71-17.31Q191.30-16.64 190.82-15.94Q190.34-15.24 189.77-14.74Q189.19-14.24 188.57-14.24L188.57-14.24Q187.94-14.24 187.54-14.88Q187.13-15.53 186.89-16.32Q186.65-17.12 186.55-17.84Q186.46-18.56 186.46-18.65L186.46-18.65Q186.46-19.23 186.79-20.84Q187.13-22.44 187.80-24.17Q188.47-25.90 189.50-27.24Q190.54-28.59 191.93-28.59L191.93-28.59Q192.46-28.59 192.62-28.13Q192.79-27.68 192.79-27.24L192.79-27.24L192.79-25.80Q193.03-25.61 193.30-25.54Q193.56-25.47 193.78-25.35Q193.99-25.23 194.11-24.99Q194.23-24.75 194.23-24.22L194.23-24.22Q194.23-23.88 194.18-23.62Q194.14-23.36 194.14-23.12L194.14-23.12Q194.14-21.87 194.33-20.67Q194.52-19.47 195.10-18.53Q195.67-17.60 196.68-17.00Q197.69-16.40 199.37-16.40L199.37-16.40Q201.48-16.40 202.94-17.28Q204.41-18.17 205.39-19.25Q206.38-20.33 206.95-21.22Q207.53-22.11 207.91-22.11L207.91-22.11Q208.54-22.11 208.54-21.48ZM191.69-23.60L191.69-23.60Q191.69-23.79 191.59-23.96Q191.50-24.12 191.50-24.27L191.50-24.27Q191.50-24.46 191.59-24.60Q191.69-24.75 191.69-24.99L191.69-24.99Q191.69-25.13 191.59-25.20Q191.50-25.28 191.50-25.37L191.50-25.37Q191.06-25.28 190.61-24.56Q190.15-23.84 189.74-22.88Q189.34-21.92 189.10-20.93Q188.86-19.95 188.86-19.32L188.86-19.32Q188.86-18.99 189.05-18.22Q189.24-17.45 189.48-17.21L189.48-17.21Q190.30-18.89 190.99-20.48Q191.69-22.06 191.69-23.60ZM219.14-33.96L219.14-33.96Q218.52-30.65 217.99-27.58L217.99-27.58Q217.75-26.28 217.51-24.87Q217.27-23.45 217.06-22.08Q216.84-20.72 216.67-19.49Q216.50-18.27 216.41-17.26L216.41-17.26Q216.22-15.72 216.12-13.76Q216.02-11.79 215.93-10.01L215.93-10.01Q215.83-7.95 215.83-5.84L215.83-5.84Q215.83-5.40 215.74-4.88Q215.64-4.35 215.64-3.82L215.64-3.82Q215.64-3.34 215.42-3.00Q215.21-2.67 214.78-2.67L214.78-2.67Q214.39-2.67 214.18-3.27Q213.96-3.87 213.82-4.66Q213.67-5.45 213.62-6.24Q213.58-7.04 213.58-7.37L213.58-7.37Q213.58-7.76 213.58-8.31Q213.58-8.86 213.65-9.94Q213.72-11.02 213.86-12.77Q214.01-14.52 214.30-17.36L214.30-17.36Q214.30-17.40 213.65-17.84Q213.00-18.27 212.06-18.92Q211.13-19.56 210.14-20.33Q209.16-21.10 208.49-21.82L208.49-21.82Q208.39-21.92 208.20-22.25Q208.01-22.59 208.01-23.07L208.01-23.07Q208.01-23.31 208.25-23.57Q208.49-23.84 208.78-23.84L208.78-23.84Q208.97-23.84 209.16-23.64L209.16-23.64Q210.26-22.68 211.70-21.51Q213.14-20.33 214.54-19.37L214.54-19.37Q214.63-20.24 214.94-22.01Q215.26-23.79 215.59-25.83Q215.93-27.87 216.24-29.79Q216.55-31.71 216.70-32.86L216.70-32.86Q216.70-33.05 216.79-33.48Q216.89-33.92 217.08-34.35Q217.27-34.78 217.51-35.09Q217.75-35.40 218.04-35.40L218.04-35.40Q218.18-35.40 218.66-35.14Q219.14-34.88 219.14-33.96ZM245.45-21.48L245.45-21.48Q245.45-20.62 244.66-19.35Q243.86-18.08 242.52-16.88Q241.18-15.68 239.40-14.84Q237.62-14.00 235.70-14.00L235.70-14.00Q234.84-14.00 233.88-14.28Q232.92-14.57 232.01-15.12Q231.10-15.68 230.38-16.47Q229.66-17.26 229.32-18.27L229.32-18.27Q229.03-17.98 228.62-17.31Q228.22-16.64 227.74-15.94Q227.26-15.24 226.68-14.74Q226.10-14.24 225.48-14.24L225.48-14.24Q224.86-14.24 224.45-14.88Q224.04-15.53 223.80-16.32Q223.56-17.12 223.46-17.84Q223.37-18.56 223.37-18.65L223.37-18.65Q223.37-19.23 223.70-20.84Q224.04-22.44 224.71-24.17Q225.38-25.90 226.42-27.24Q227.45-28.59 228.84-28.59L228.84-28.59Q229.37-28.59 229.54-28.13Q229.70-27.68 229.70-27.24L229.70-27.24L229.70-25.80Q229.94-25.61 230.21-25.54Q230.47-25.47 230.69-25.35Q230.90-25.23 231.02-24.99Q231.14-24.75 231.14-24.22L231.14-24.22Q231.14-23.88 231.10-23.62Q231.05-23.36 231.05-23.12L231.05-23.12Q231.05-21.87 231.24-20.67Q231.43-19.47 232.01-18.53Q232.58-17.60 233.59-17.00Q234.60-16.40 236.28-16.40L236.28-16.40Q238.39-16.40 239.86-17.28Q241.32-18.17 242.30-19.25Q243.29-20.33 243.86-21.22Q244.44-22.11 244.82-22.11L244.82-22.11Q245.45-22.11 245.45-21.48ZM228.60-23.60L228.60-23.60Q228.60-23.79 228.50-23.96Q228.41-24.12 228.41-24.27L228.41-24.27Q228.41-24.46 228.50-24.60Q228.60-24.75 228.60-24.99L228.60-24.99Q228.60-25.13 228.50-25.20Q228.41-25.28 228.41-25.37L228.41-25.37Q227.98-25.28 227.52-24.56Q227.06-23.84 226.66-22.88Q226.25-21.92 226.01-20.93Q225.77-19.95 225.77-19.32L225.77-19.32Q225.77-18.99 225.96-18.22Q226.15-17.45 226.39-17.21L226.39-17.21Q227.21-18.89 227.90-20.48Q228.60-22.06 228.60-23.60Z"/></g></g></svg>